PathFileType	4	(X/Y/Z)	Patient4_TMGait_0pt3_03_right_17.trc.trc
DataRate	CameraRate	NumFrames	NumMarkers	Units	OrigDataRate	OrigDataStartFrame	OrigNumFrames
56.000000000000	56.000000000000	4	33	mm	56.000000000000	124	       141
Frame#	Time	Sacral			L.Shoulder			Chest			R.Shoulder			Neck			R.ASIS			L.ASIS			R.Thigh.Superior			R.Thigh.Lateral			R.Thigh.Inferior			R.Patella			L.Thigh.Superior			L.Thigh.Lateral			L.Thigh.Inferior			L.Patella			L.Shank.Superior			L.Shank.Lateral			L.Shank.Inferior			R.Shank.Superior			R.Shank.Lateral			R.Shank.Inferior			R.Heel			R.Midfoot.Superior			R.Midfoot.Lateral			R.Toe			L.Heel			L.Midfoot.Lateral			L.Midfoot.Superior			L.Toe			L.Elbow			L.Wrist			R.Elbow			R.Wrist			
		X1	Y1	Z1	X2	Y2	Z2	X3	Y3	Z3	X4	Y4	Z4	X5	Y5	Z5	X6	Y6	Z6	X7	Y7	Z7	X8	Y8	Z8	X9	Y9	Z9	X10	Y10	Z10	X11	Y11	Z11	X12	Y12	Z12	X13	Y13	Z13	X14	Y14	Z14	X15	Y15	Z15	X16	Y16	Z16	X17	Y17	Z17	X18	Y18	Z18	X19	Y19	Z19	X20	Y20	Z20	X21	Y21	Z21	X22	Y22	Z22	X23	Y23	Z23	X24	Y24	Z24	X25	Y25	Z25	X26	Y26	Z26	X27	Y27	Z27	X28	Y28	Z28	X29	Y29	Z29	X30	Y30	Z30	X31	Y31	Z31	X32	Y32	Z32	X33	Y33	Z33	

124	34.376428571429	655.697413373266	1008.621078753647	396.595127173391	920.046907919858	1419.928910067224	262.193016194642	972.949450031219	1341.497036156462	440.964382677819	860.082324137481	1426.738893150300	591.472126075278	881.550311306178	1482.397069750271	413.360137920875	856.124444020102	931.262556891439	556.109540282965	893.612677649853	947.705631944356	283.059412352774	924.458027735156	752.173890347145	532.175040092021	864.225918463173	635.662263930073	598.932402048931	953.488870491304	592.717174102579	523.381745645655	976.360735328051	510.184809299157	540.436600343634	901.513698510812	724.184700940327	320.240310412932	809.146254227855	619.691375406762	243.331463500772	865.527413049872	532.446628093866	321.329133200841	853.550102027517	462.245032483526	328.317950755819	812.629115290181	396.430645745809	313.040277937219	711.362548201500	301.040714737812	246.834285425912	726.857470347374	182.598067069531	320.336250297025	956.431299952155	419.481783837663	553.939890687294	896.029325596765	311.900042108182	622.795831790318	956.949944026563	219.288827678351	572.057612892860	849.753945058824	38.505362829792	554.559969578984	1015.139765390834	110.053369394648	587.771771303015	936.879244567665	36.472059227936	625.454490022263	1139.452066600786	72.659684355685	607.886669805701	572.346591862137	39.990348440693	342.283028925054	653.208998265924	35.448764734682	269.449226291104	735.736020072527	94.460178594497	305.082353474341	864.686269530488	38.817884237905	285.345435655357	945.475360027343	1077.318441464842	127.047201021821	1155.066017256655	948.726196359167	208.416956684968	672.676710754894	1124.294831410370	662.282709711970	628.311787288281	866.363517881200	672.692616363934	
125	34.394285714286	657.495529313619	1006.396253518707	401.794358378971	920.046247244304	1418.600016862083	267.866304826649	973.719122140678	1340.325260100790	446.453990076531	860.896569537896	1425.143738495718	597.353457479604	881.878649982069	1480.850060929681	419.245523759057	858.445975177369	929.033721335508	560.678991245025	895.352522489282	946.438205132315	287.735698688522	927.419684618009	750.155561926894	536.735641912239	865.549632443782	633.176013961553	601.788429283886	955.968747444272	591.020244660616	527.217410479815	977.477932177953	507.934622233565	543.086033158648	902.464506719691	722.336484156172	323.655431328738	808.874532472379	618.759612308902	246.400366835506	864.614043250391	530.687560044292	323.687927229197	851.908646630738	460.338138605272	330.404750806276	810.326786288322	395.045172045057	314.837152130677	707.853971169601	301.031129714049	248.180779489645	722.330747157883	181.992554423267	320.967778252394	957.541430038612	416.980214876562	556.144758230087	896.594405155749	309.678937697036	624.358713657808	956.579133036667	217.069547779842	573.060509091995	847.429054136293	39.010059652978	554.654896843675	1013.440800906141	107.570211904735	588.510039600846	933.826671918990	36.207323730596	626.241926086021	1136.911339992287	68.146312167925	609.696919333248	566.935302462215	40.031627094980	342.240078899675	647.811836698701	35.390164927873	269.439906887482	730.394693363662	94.391360766289	305.145399710779	859.322295935642	38.762227893869	285.310310630253	948.439514058113	1075.562765439501	134.124154437299	1163.183946306880	957.086212666461	216.280349028730	675.415021589433	1121.621445237902	668.032954680887	633.150483505706	863.049414868055	678.033766431986	
126	34.412142857143	659.400645494265	1004.517401680328	407.167384654836	920.134169501611	1417.659264660694	273.796384342378	974.605891996906	1339.442672893254	452.160411267558	861.860713891188	1423.765498634580	603.503227532903	882.295597788602	1479.625995422967	425.432166698940	860.981840850996	927.198285861664	565.386568662383	897.193188161086	945.545342304814	292.520618907536	930.748764161031	748.693958753013	541.013322187956	867.527029372886	631.204402841438	604.421413986558	958.952475087723	589.757433740979	530.717097202752	979.208250088848	505.842386861886	545.479053564507	903.725787538205	720.797397194373	327.063510607946	808.863733831736	618.041740320511	249.650589071453	864.200759343747	529.188316324268	326.149290315313	850.899221737722	458.606468958210	332.575425113840	808.497262379497	393.886760556879	316.728372387360	704.644084789207	301.429894885529	249.656853671667	718.095093258073	181.693378731591	321.620309520105	958.749898374740	414.679884000150	557.995881511869	896.764246063341	307.941200351772	625.612483564562	955.184743589140	215.010349713926	573.607160857273	843.074384386842	39.852199739578	554.289010611486	1009.967607966511	105.067970910968	588.742167356220	928.717982839502	36.193358605452	626.602141902851	1132.543134219003	63.308455907049	611.209754524630	561.620768196994	40.584723852369	342.216533746311	642.496433911548	35.613836384990	269.462783639761	725.278192545901	94.442673428070	305.173149071076	854.018185010413	38.646763789753	285.251391092570	950.907748176238	1074.056714189414	141.626128903983	1170.176425884647	964.911423325794	223.917103918052	679.178277002485	1118.594686349344	674.468665167526	640.327891391047	859.290456375665	684.558059864181	
127	34.430000000000	661.394220157052	1003.141657766155	412.662558667406	920.403587461968	1417.218594987046	279.940136647609	975.627703195706	1338.954642836893	458.054452037861	862.976654348950	1422.749397757694	609.846752982598	882.830391183474	1478.844556628727	431.847940776083	863.663626853640	925.881549260807	570.223965604492	899.078414052317	945.120241985856	297.411188369985	934.185049769804	747.777589874369	545.011880607720	869.919958980259	629.819280238887	606.960216389575	962.044296504069	588.897990179083	533.884926403590	981.195053803917	504.016432615904	547.655314886084	905.177853505329	719.669818678452	330.474798031726	809.056946227996	617.641881513475	253.029128781849	864.240428854634	528.046545340090	328.665454229865	850.488405904331	457.147899122907	334.756739463157	807.122430823878	393.059749669589	318.666232043192	701.742290588527	302.331535069429	251.235546147197	714.191402016947	181.806176795073	322.276429576375	959.872046151980	412.694776829438	559.577926464838	896.620517574307	306.649569414763	626.713304953386	953.060468127686	213.194087680677	573.834470218778	837.446214719549	40.793279888518	553.704789764872	1005.342468362325	102.733416303955	588.588735711831	922.411020231206	36.322509593312	626.667469135864	1127.090778918596	58.618839798970	612.340843558797	556.437912347363	41.807057868481	342.212030573816	637.287003635576	36.222860115327	269.516786175919	720.445478584700	94.659691542505	305.160021795572	848.777512500911	38.469470537653	285.179173283722	952.849302312675	1072.953126364926	149.423678235484	1175.977518991654	972.112295413842	231.353295092593	683.741687649483	1115.523299879551	681.471408861436	649.706557199421	855.465945325475	692.230693721876	
